<svg width="448" height="320" viewBox="0 0 448 320" fill="none" xmlns="http://www.w3.org/2000/svg">
<path fill-rule="evenodd" clip-rule="evenodd" d="M199.623 72.0649L203.995 76.4952L267.134 76.5071C268.256 76.5071 269.167 77.4302 269.167 78.5676V132.392C269.167 133.528 268.256 134.451 267.134 134.451H261.188L265.253 138.57H267.161C270.528 138.57 273.258 135.804 273.258 132.392V78.5256C273.258 75.1134 270.528 72.347 267.161 72.347H248.395C247.396 67.5501 243.22 64.1128 238.381 64.1088H209.573C204.83 64.1127 200.723 67.4159 199.623 72.0649ZM269.16 148.851L275.494 155.281L272.649 158.164L253.272 138.57H180.874C177.508 138.57 174.777 135.804 174.777 132.392V78.5676C174.777 75.1554 177.507 72.388 180.874 72.388H187.974L172.514 56.6947L175.36 53.8112L178.233 56.7117L197.755 76.4941L197.704 76.4941L207.744 86.6686C207.753 86.6604 207.762 86.6521 207.771 86.6439L215.151 94.122L215.658 94.6454C215.66 94.644 215.661 94.6425 215.663 94.6411L242.546 121.882C242.544 121.884 242.542 121.886 242.541 121.888L254.939 134.451H254.95L269.16 148.851ZM245.226 118.276C251.374 108.23 249.761 94.8622 240.804 86.6495C232.548 79.0799 220.495 78.1741 211.331 83.9287L214.342 86.98C222.684 82.458 233.292 84.2555 239.681 91.8499C245.258 98.4784 246.09 107.765 242.177 115.187L245.226 118.276ZM236.87 109.809C238.645 104.431 236.994 98.2754 232.321 94.6033C228.665 91.7288 223.922 91.0056 219.719 92.4288L223.027 95.7809C226.327 95.3775 229.739 96.7468 231.836 99.6626C233.286 101.678 233.869 104.122 233.587 106.482L236.87 109.809ZM209.559 68.2689C206.968 68.2689 204.654 69.917 203.774 72.388H244.208C243.327 69.917 241.013 68.2689 238.422 68.2689H209.559ZM231.822 116.835C227.005 120.496 220.381 120.496 215.563 116.835C209.576 112.286 208.362 103.679 212.853 97.612L207.866 92.5448C201.633 100.231 201.63 111.311 207.859 119C215.067 127.897 228.028 129.191 236.809 121.888L231.822 116.835ZM215.839 110.394C218.519 114.953 224.342 116.449 228.841 113.732L215.874 100.495C214.058 103.535 214.045 107.341 215.839 110.394ZM208.46 124.757C197.935 116.01 196.401 100.271 205.034 89.6062L192.04 76.466H180.874C179.753 76.466 178.842 77.3892 178.842 78.5256V132.309C178.842 133.446 179.753 134.369 180.874 134.369H249.275L239.722 124.757C230.635 132.311 217.548 132.311 208.46 124.757ZM195.534 85.7074C195.534 88.1034 193.616 90.0457 191.252 90.0457C188.888 90.0457 186.97 88.1034 186.97 85.7074C186.97 83.3105 188.888 81.3681 191.252 81.3681C193.616 81.3681 195.534 83.3105 195.534 85.7074ZM260.181 91.6249H250.832C247.61 91.4657 245.126 88.6913 245.283 85.4252C245.44 82.1602 248.179 79.6441 251.401 79.8023H260.75C263.973 79.9625 266.456 82.7369 266.299 86.002C266.142 89.268 263.403 91.7841 260.181 91.6249ZM260.181 83.9224H251.102C251.091 83.9236 251.08 83.9244 251.069 83.9253L251.069 83.9253C251.052 83.9266 251.035 83.928 251.018 83.9304C250.044 84.0365 249.341 84.9246 249.445 85.9118C249.549 86.8991 250.427 87.6129 251.401 87.5058H260.493C261.469 87.4187 262.191 86.5466 262.105 85.5564C262.018 84.5662 261.158 83.8343 260.181 83.9224Z" fill="#D4D4D4"/>
<path d="M105.374 195.756H105.567C106.792 195.756 107.898 196.028 108.887 196.572C109.882 197.109 110.656 197.876 111.207 198.871C111.758 199.867 112.034 200.998 112.034 202.266C112.034 204.142 111.433 205.674 110.229 206.863C109.034 208.052 107.415 208.646 105.374 208.646V210.645H102.27V208.646H102.065C100.826 208.646 99.7093 208.382 98.7139 207.852C97.7184 207.314 96.945 206.562 96.3936 205.596C95.8493 204.629 95.5771 203.526 95.5771 202.287C95.5771 201.034 95.8493 199.913 96.3936 198.925C96.9378 197.937 97.7005 197.167 98.6816 196.615C99.6628 196.057 100.758 195.77 101.969 195.756H102.27V193.715H105.374V195.756ZM102.065 198.431C100.998 198.431 100.157 198.767 99.541 199.44C98.9323 200.114 98.6279 201.062 98.6279 202.287C98.6279 203.433 98.9323 204.335 99.541 204.994C100.15 205.646 101.006 205.972 102.108 205.972H102.27V198.431H102.065ZM105.374 198.431V205.972H105.589C106.642 205.972 107.469 205.642 108.07 204.983C108.679 204.317 108.983 203.411 108.983 202.266C108.983 201.07 108.686 200.132 108.092 199.451C107.497 198.771 106.645 198.431 105.535 198.431H105.374ZM126.998 202.534C126.998 204.074 126.726 205.424 126.182 206.584C125.637 207.744 124.857 208.639 123.84 209.27C122.83 209.9 121.67 210.215 120.359 210.215C119.063 210.215 117.907 209.903 116.89 209.28C115.873 208.657 115.085 207.769 114.526 206.616C113.968 205.456 113.685 204.124 113.678 202.62V201.847C113.678 200.307 113.953 198.953 114.505 197.786C115.063 196.612 115.848 195.713 116.857 195.09C117.874 194.46 119.035 194.145 120.338 194.145C121.641 194.145 122.798 194.46 123.808 195.09C124.825 195.713 125.609 196.612 126.16 197.786C126.719 198.953 126.998 200.303 126.998 201.836V202.534ZM123.732 201.825C123.732 200.185 123.439 198.939 122.852 198.087C122.264 197.235 121.426 196.809 120.338 196.809C119.257 196.809 118.422 197.231 117.835 198.076C117.248 198.914 116.951 200.146 116.943 201.771V202.534C116.943 204.131 117.237 205.37 117.824 206.251C118.411 207.132 119.257 207.572 120.359 207.572C121.441 207.572 122.271 207.15 122.852 206.305C123.432 205.452 123.725 204.214 123.732 202.588V201.825ZM140.189 196.97H135.398V210H132.176V196.97H127.449V194.359H140.189V196.97ZM154.584 202.534C154.584 204.074 154.312 205.424 153.768 206.584C153.223 207.744 152.443 208.639 151.426 209.27C150.416 209.9 149.256 210.215 147.945 210.215C146.649 210.215 145.493 209.903 144.476 209.28C143.459 208.657 142.671 207.769 142.112 206.616C141.554 205.456 141.271 204.124 141.264 202.62V201.847C141.264 200.307 141.539 198.953 142.091 197.786C142.649 196.612 143.434 195.713 144.443 195.09C145.46 194.46 146.62 194.145 147.924 194.145C149.227 194.145 150.384 194.46 151.394 195.09C152.41 195.713 153.195 196.612 153.746 197.786C154.305 198.953 154.584 200.303 154.584 201.836V202.534ZM151.318 201.825C151.318 200.185 151.025 198.939 150.438 198.087C149.85 197.235 149.012 196.809 147.924 196.809C146.842 196.809 146.008 197.231 145.421 198.076C144.834 198.914 144.536 200.146 144.529 201.771V202.534C144.529 204.131 144.823 205.37 145.41 206.251C145.997 207.132 146.842 207.572 147.945 207.572C149.027 207.572 149.857 207.15 150.438 206.305C151.018 205.452 151.311 204.214 151.318 202.588V201.825ZM174.683 204.79C174.561 206.473 173.938 207.798 172.813 208.765C171.696 209.731 170.221 210.215 168.388 210.215C166.382 210.215 164.803 209.542 163.65 208.195C162.505 206.842 161.932 204.987 161.932 202.631V201.675C161.932 200.171 162.197 198.846 162.727 197.7C163.257 196.554 164.012 195.677 164.993 195.068C165.981 194.452 167.127 194.145 168.431 194.145C170.235 194.145 171.689 194.628 172.792 195.595C173.895 196.562 174.532 197.919 174.704 199.666H171.481C171.403 198.656 171.12 197.926 170.633 197.475C170.153 197.016 169.419 196.787 168.431 196.787C167.356 196.787 166.551 197.174 166.014 197.947C165.484 198.714 165.212 199.906 165.197 201.524V202.706C165.197 204.396 165.451 205.632 165.96 206.412C166.476 207.193 167.285 207.583 168.388 207.583C169.383 207.583 170.124 207.357 170.611 206.906C171.105 206.448 171.388 205.743 171.46 204.79H174.683ZM181.901 203.608H180.043V210H176.82V194.359H180.043V200.622H181.515L185.339 194.359H189.271L184.447 201.761L189.775 210H185.93L181.901 203.608ZM203.525 202.534C203.525 204.074 203.253 205.424 202.709 206.584C202.165 207.744 201.384 208.639 200.367 209.27C199.357 209.9 198.197 210.215 196.887 210.215C195.59 210.215 194.434 209.903 193.417 209.28C192.4 208.657 191.612 207.769 191.054 206.616C190.495 205.456 190.212 204.124 190.205 202.62V201.847C190.205 200.307 190.481 198.953 191.032 197.786C191.591 196.612 192.375 195.713 193.385 195.09C194.402 194.46 195.562 194.145 196.865 194.145C198.169 194.145 199.325 194.46 200.335 195.09C201.352 195.713 202.136 196.612 202.688 197.786C203.246 198.953 203.525 200.303 203.525 201.836V202.534ZM200.26 201.825C200.26 200.185 199.966 198.939 199.379 198.087C198.792 197.235 197.954 196.809 196.865 196.809C195.784 196.809 194.95 197.231 194.362 198.076C193.775 198.914 193.478 200.146 193.471 201.771V202.534C193.471 204.131 193.764 205.37 194.352 206.251C194.939 207.132 195.784 207.572 196.887 207.572C197.968 207.572 198.799 207.15 199.379 206.305C199.959 205.452 200.253 204.214 200.26 202.588V201.825ZM209.09 204.489V210H205.867V194.359H211.969C213.143 194.359 214.174 194.574 215.062 195.004C215.958 195.434 216.645 196.046 217.125 196.841C217.605 197.629 217.845 198.527 217.845 199.537C217.845 201.07 217.318 202.28 216.266 203.168C215.22 204.049 213.77 204.489 211.915 204.489H209.09ZM209.09 201.879H211.969C212.821 201.879 213.469 201.678 213.913 201.277C214.364 200.876 214.59 200.303 214.59 199.559C214.59 198.792 214.364 198.173 213.913 197.7C213.462 197.228 212.839 196.984 212.044 196.97H209.09V201.879ZM232.916 202.534C232.916 204.074 232.644 205.424 232.1 206.584C231.555 207.744 230.775 208.639 229.758 209.27C228.748 209.9 227.588 210.215 226.277 210.215C224.981 210.215 223.825 209.903 222.808 209.28C221.791 208.657 221.003 207.769 220.444 206.616C219.886 205.456 219.603 204.124 219.596 202.62V201.847C219.596 200.307 219.871 198.953 220.423 197.786C220.981 196.612 221.766 195.713 222.775 195.09C223.792 194.46 224.952 194.145 226.256 194.145C227.559 194.145 228.716 194.46 229.726 195.09C230.743 195.713 231.527 196.612 232.078 197.786C232.637 198.953 232.916 200.303 232.916 201.836V202.534ZM229.65 201.825C229.65 200.185 229.357 198.939 228.77 198.087C228.182 197.235 227.344 196.809 226.256 196.809C225.174 196.809 224.34 197.231 223.753 198.076C223.166 198.914 222.868 200.146 222.861 201.771V202.534C222.861 204.131 223.155 205.37 223.742 206.251C224.329 207.132 225.174 207.572 226.277 207.572C227.359 207.572 228.189 207.15 228.77 206.305C229.35 205.452 229.643 204.214 229.65 202.588V201.825ZM253.477 210H250.243V196.97H243.98V210H240.758V194.359H253.477V210ZM269.16 202.534C269.16 204.074 268.888 205.424 268.344 206.584C267.799 207.744 267.019 208.639 266.002 209.27C264.992 209.9 263.832 210.215 262.521 210.215C261.225 210.215 260.069 209.903 259.052 209.28C258.035 208.657 257.247 207.769 256.688 206.616C256.13 205.456 255.847 204.124 255.84 202.62V201.847C255.84 200.307 256.116 198.953 256.667 197.786C257.226 196.612 258.01 195.713 259.02 195.09C260.036 194.46 261.197 194.145 262.5 194.145C263.803 194.145 264.96 194.46 265.97 195.09C266.987 195.713 267.771 196.612 268.322 197.786C268.881 198.953 269.16 200.303 269.16 201.836V202.534ZM265.895 201.825C265.895 200.185 265.601 198.939 265.014 198.087C264.426 197.235 263.589 196.809 262.5 196.809C261.419 196.809 260.584 197.231 259.997 198.076C259.41 198.914 259.113 200.146 259.105 201.771V202.534C259.105 204.131 259.399 205.37 259.986 206.251C260.574 207.132 261.419 207.572 262.521 207.572C263.603 207.572 264.434 207.15 265.014 206.305C265.594 205.452 265.887 204.214 265.895 202.588V201.825ZM278.731 210V204.36H276.11L273.285 210H269.805L273.146 203.329C271.534 202.441 270.729 201.062 270.729 199.193C270.729 197.661 271.23 196.476 272.232 195.638C273.235 194.8 274.635 194.374 276.433 194.359H281.965V210H278.731ZM273.951 199.43C273.951 200.303 274.162 200.937 274.585 201.331C275.015 201.725 275.656 201.922 276.508 201.922H278.731V196.97H276.508C274.803 196.97 273.951 197.79 273.951 199.43ZM284.629 210V194.359H290.107C292.005 194.359 293.445 194.725 294.426 195.455C295.407 196.178 295.897 197.242 295.897 198.646C295.897 199.412 295.701 200.089 295.307 200.676C294.913 201.256 294.365 201.682 293.663 201.954C294.465 202.155 295.095 202.559 295.554 203.168C296.019 203.777 296.252 204.521 296.252 205.402C296.252 206.906 295.772 208.045 294.812 208.818C293.853 209.592 292.485 209.986 290.709 210H284.629ZM287.852 203.189V207.411H290.612C291.371 207.411 291.962 207.232 292.385 206.874C292.814 206.509 293.029 206.007 293.029 205.37C293.029 203.938 292.288 203.211 290.806 203.189H287.852ZM287.852 200.912H290.236C291.862 200.883 292.675 200.235 292.675 198.968C292.675 198.259 292.467 197.75 292.052 197.442C291.644 197.127 290.995 196.97 290.107 196.97H287.852V200.912ZM308.058 194.359H311.291V210H308.058V199.612L301.795 210H298.572V194.359H301.795V204.769L308.058 194.359ZM325.535 196.97H320.744V210H317.521V196.97H312.795V194.359H325.535V196.97ZM339.36 204.79C339.239 206.473 338.616 207.798 337.491 208.765C336.374 209.731 334.899 210.215 333.065 210.215C331.06 210.215 329.481 209.542 328.328 208.195C327.182 206.842 326.609 204.987 326.609 202.631V201.675C326.609 200.171 326.874 198.846 327.404 197.7C327.934 196.554 328.69 195.677 329.671 195.068C330.659 194.452 331.805 194.145 333.108 194.145C334.913 194.145 336.367 194.628 337.47 195.595C338.573 196.562 339.21 197.919 339.382 199.666H336.159C336.08 198.656 335.798 197.926 335.311 197.475C334.831 197.016 334.097 196.787 333.108 196.787C332.034 196.787 331.229 197.174 330.691 197.947C330.161 198.714 329.889 199.906 329.875 201.524V202.706C329.875 204.396 330.129 205.632 330.638 206.412C331.153 207.193 331.963 207.583 333.065 207.583C334.061 207.583 334.802 207.357 335.289 206.906C335.783 206.448 336.066 205.743 336.138 204.79H339.36ZM348.706 210V204.36H346.085L343.26 210H339.779L343.12 203.329C341.509 202.441 340.703 201.062 340.703 199.193C340.703 197.661 341.204 196.476 342.207 195.638C343.21 194.8 344.61 194.374 346.407 194.359H351.939V210H348.706ZM343.926 199.43C343.926 200.303 344.137 200.937 344.56 201.331C344.989 201.725 345.63 201.922 346.482 201.922H348.706V196.97H346.482C344.778 196.97 343.926 197.79 343.926 199.43Z" fill="#C6C6C6"/>
<path d="M85.4668 244.146H83.3574V241H74.9287V244.146H72.7842L72.7139 239.225H73.7422C74.252 238.732 74.6592 238.018 74.9639 237.08C75.2686 236.137 75.4648 235.07 75.5527 233.881L75.8867 228.203H83.9551V239.225H85.5811L85.4668 244.146ZM76.2559 239.225H81.7402V229.996H78.0049L77.7939 233.6C77.6357 236.008 77.123 237.883 76.2559 239.225ZM95.2666 231.49V241H93.1309V233.213H90.4414L90.2656 236.526C90.1543 238.12 89.8467 239.266 89.3428 239.963C88.8447 240.654 88.0801 241 87.0488 241H86.3896L86.3809 239.225L86.8203 239.181C87.2891 239.116 87.6289 238.832 87.8398 238.328C88.0566 237.818 88.1943 236.893 88.2529 235.551L88.4287 231.49H95.2666ZM105.154 231.49V241H103.027V237.511H101.032L99.002 241H96.7871L99.0283 237.159C98.4424 236.913 97.9912 236.562 97.6748 236.104C97.3643 235.647 97.209 235.123 97.209 234.531C97.209 233.646 97.5488 232.923 98.2285 232.36C98.9141 231.792 99.8369 231.502 100.997 231.49H105.154ZM99.3447 234.584C99.3447 234.982 99.4912 235.308 99.7842 235.56C100.083 235.806 100.464 235.929 100.927 235.929H103.027V233.187H101.059C100.537 233.187 100.121 233.318 99.8105 233.582C99.5 233.846 99.3447 234.18 99.3447 234.584ZM120.069 241H117.934V233.213H114.225V241H112.089V231.49H120.069V241ZM121.941 236.157C121.941 235.226 122.126 234.388 122.495 233.644C122.864 232.894 123.383 232.319 124.051 231.921C124.719 231.517 125.486 231.314 126.354 231.314C127.637 231.314 128.677 231.728 129.474 232.554C130.276 233.38 130.71 234.476 130.774 235.841L130.783 236.342C130.783 237.279 130.602 238.117 130.238 238.855C129.881 239.594 129.365 240.165 128.691 240.569C128.023 240.974 127.25 241.176 126.371 241.176C125.029 241.176 123.954 240.73 123.146 239.84C122.343 238.943 121.941 237.751 121.941 236.263V236.157ZM124.077 236.342C124.077 237.32 124.279 238.088 124.684 238.645C125.088 239.195 125.65 239.471 126.371 239.471C127.092 239.471 127.651 239.189 128.05 238.627C128.454 238.064 128.656 237.241 128.656 236.157C128.656 235.196 128.448 234.435 128.032 233.872C127.622 233.31 127.062 233.028 126.354 233.028C125.656 233.028 125.103 233.307 124.692 233.863C124.282 234.414 124.077 235.24 124.077 236.342ZM140.53 231.49V241H138.395V233.213H135.705L135.529 236.526C135.418 238.12 135.11 239.266 134.606 239.963C134.108 240.654 133.344 241 132.312 241H131.653L131.645 239.225L132.084 239.181C132.553 239.116 132.893 238.832 133.104 238.328C133.32 237.818 133.458 236.893 133.517 235.551L133.692 231.49H140.53ZM146.129 237.941L148.062 231.49H150.339L146.56 242.441C145.979 244.041 144.995 244.841 143.606 244.841C143.296 244.841 142.953 244.788 142.578 244.683V243.03L142.982 243.057C143.521 243.057 143.926 242.957 144.195 242.758C144.471 242.564 144.688 242.236 144.846 241.773L145.153 240.956L141.813 231.49H144.116L146.129 237.941ZM159.198 241H157.062V237.827C156.512 237.956 155.932 238.021 155.322 238.021C154.021 238.021 153.028 237.71 152.343 237.089C151.657 236.462 151.314 235.565 151.314 234.399V231.481H153.45V234.399C153.45 235.091 153.603 235.58 153.907 235.867C154.218 236.154 154.689 236.298 155.322 236.298C155.896 236.298 156.477 236.23 157.062 236.096V231.49H159.198V241ZM165.658 241.176C164.305 241.176 163.206 240.751 162.362 239.901C161.524 239.046 161.105 237.909 161.105 236.491V236.228C161.105 235.278 161.287 234.432 161.65 233.688C162.02 232.938 162.535 232.354 163.197 231.938C163.859 231.522 164.598 231.314 165.412 231.314C166.707 231.314 167.706 231.728 168.409 232.554C169.118 233.38 169.473 234.549 169.473 236.061V236.922H163.259C163.323 237.707 163.584 238.328 164.041 238.785C164.504 239.242 165.084 239.471 165.781 239.471C166.76 239.471 167.557 239.075 168.172 238.284L169.323 239.383C168.942 239.951 168.433 240.394 167.794 240.71C167.161 241.021 166.449 241.176 165.658 241.176ZM165.403 233.028C164.817 233.028 164.343 233.233 163.979 233.644C163.622 234.054 163.394 234.625 163.294 235.357H167.363V235.199C167.316 234.484 167.126 233.945 166.792 233.582C166.458 233.213 165.995 233.028 165.403 233.028ZM179.193 241H177.058V237.159H173.357V241H171.222V231.49H173.357V235.454H177.058V231.49H179.193V241ZM187.411 231.49H189.538V241H187.411V234.654L183.685 241H181.558V231.49H183.685V237.836L187.411 231.49ZM199.426 231.49V241H197.299V237.511H195.304L193.273 241H191.059L193.3 237.159C192.714 236.913 192.263 236.562 191.946 236.104C191.636 235.647 191.48 235.123 191.48 234.531C191.48 233.646 191.82 232.923 192.5 232.36C193.186 231.792 194.108 231.502 195.269 231.49H199.426ZM193.616 234.584C193.616 234.982 193.763 235.308 194.056 235.56C194.354 235.806 194.735 235.929 195.198 235.929H197.299V233.187H195.33C194.809 233.187 194.393 233.318 194.082 233.582C193.771 233.846 193.616 234.18 193.616 234.584ZM205.921 236.377C205.921 234.824 206.226 233.594 206.835 232.686C207.45 231.771 208.306 231.314 209.401 231.314C209.847 231.314 210.251 231.396 210.614 231.561V227.5H212.741V231.596C213.116 231.408 213.556 231.314 214.06 231.314C215.149 231.314 216.002 231.769 216.617 232.677C217.238 233.579 217.549 234.874 217.549 236.562C217.549 237.985 217.238 239.11 216.617 239.937C215.996 240.763 215.149 241.176 214.077 241.176C213.591 241.176 213.146 241.088 212.741 240.912V244.656H210.614V240.947C210.257 241.1 209.847 241.176 209.384 241.176C208.358 241.176 207.538 240.798 206.923 240.042C206.313 239.28 205.982 238.234 205.93 236.904L205.921 236.377ZM215.413 236.377C215.413 235.311 215.243 234.487 214.903 233.907C214.563 233.321 214.083 233.028 213.462 233.028C213.198 233.028 212.958 233.066 212.741 233.143V239.383C212.935 239.441 213.181 239.471 213.479 239.471C214.769 239.471 215.413 238.439 215.413 236.377ZM208.048 236.562C208.048 237.511 208.206 238.234 208.522 238.732C208.839 239.225 209.308 239.471 209.929 239.471C210.192 239.471 210.421 239.441 210.614 239.383V233.116C210.415 233.058 210.192 233.028 209.946 233.028C209.337 233.028 208.868 233.312 208.54 233.881C208.212 234.443 208.048 235.337 208.048 236.562ZM218.99 236.157C218.99 235.226 219.175 234.388 219.544 233.644C219.913 232.894 220.432 232.319 221.1 231.921C221.768 231.517 222.535 231.314 223.402 231.314C224.686 231.314 225.726 231.728 226.522 232.554C227.325 233.38 227.759 234.476 227.823 235.841L227.832 236.342C227.832 237.279 227.65 238.117 227.287 238.855C226.93 239.594 226.414 240.165 225.74 240.569C225.072 240.974 224.299 241.176 223.42 241.176C222.078 241.176 221.003 240.73 220.194 239.84C219.392 238.943 218.99 237.751 218.99 236.263V236.157ZM221.126 236.342C221.126 237.32 221.328 238.088 221.732 238.645C222.137 239.195 222.699 239.471 223.42 239.471C224.141 239.471 224.7 239.189 225.099 238.627C225.503 238.064 225.705 237.241 225.705 236.157C225.705 235.196 225.497 234.435 225.081 233.872C224.671 233.31 224.111 233.028 223.402 233.028C222.705 233.028 222.151 233.307 221.741 233.863C221.331 234.414 221.126 235.24 221.126 236.342ZM236.858 233.187H233.773V241H231.638V233.187H228.588V231.49H236.858V233.187ZM237.623 236.157C237.623 235.226 237.808 234.388 238.177 233.644C238.546 232.894 239.064 232.319 239.732 231.921C240.4 231.517 241.168 231.314 242.035 231.314C243.318 231.314 244.358 231.728 245.155 232.554C245.958 233.38 246.392 234.476 246.456 235.841L246.465 236.342C246.465 237.279 246.283 238.117 245.92 238.855C245.562 239.594 245.047 240.165 244.373 240.569C243.705 240.974 242.932 241.176 242.053 241.176C240.711 241.176 239.636 240.73 238.827 239.84C238.024 238.943 237.623 237.751 237.623 236.263V236.157ZM239.759 236.342C239.759 237.32 239.961 238.088 240.365 238.645C240.77 239.195 241.332 239.471 242.053 239.471C242.773 239.471 243.333 239.189 243.731 238.627C244.136 238.064 244.338 237.241 244.338 236.157C244.338 235.196 244.13 234.435 243.714 233.872C243.304 233.31 242.744 233.028 242.035 233.028C241.338 233.028 240.784 233.307 240.374 233.863C239.964 234.414 239.759 235.24 239.759 236.342ZM254.604 233.213H250.473V241H248.346V231.49H254.604V233.213ZM264.14 236.342C264.14 237.812 263.806 238.987 263.138 239.866C262.47 240.739 261.573 241.176 260.448 241.176C259.405 241.176 258.57 240.833 257.943 240.147V244.656H255.808V231.49H257.776L257.864 232.457C258.491 231.695 259.344 231.314 260.422 231.314C261.582 231.314 262.49 231.748 263.146 232.615C263.809 233.477 264.14 234.675 264.14 236.21V236.342ZM262.013 236.157C262.013 235.208 261.822 234.455 261.441 233.898C261.066 233.342 260.527 233.063 259.824 233.063C258.951 233.063 258.324 233.424 257.943 234.145V238.363C258.33 239.102 258.963 239.471 259.842 239.471C260.521 239.471 261.052 239.198 261.433 238.653C261.819 238.103 262.013 237.271 262.013 236.157ZM271.637 241C271.543 240.818 271.461 240.522 271.391 240.112C270.711 240.821 269.879 241.176 268.895 241.176C267.939 241.176 267.16 240.903 266.557 240.358C265.953 239.813 265.651 239.14 265.651 238.337C265.651 237.323 266.026 236.547 266.776 236.008C267.532 235.463 268.61 235.19 270.011 235.19H271.32V234.566C271.32 234.074 271.183 233.682 270.907 233.389C270.632 233.09 270.213 232.94 269.65 232.94C269.164 232.94 268.766 233.063 268.455 233.31C268.145 233.55 267.989 233.857 267.989 234.232H265.854C265.854 233.711 266.026 233.225 266.372 232.773C266.718 232.316 267.187 231.959 267.778 231.701C268.376 231.443 269.041 231.314 269.773 231.314C270.887 231.314 271.774 231.596 272.437 232.158C273.099 232.715 273.438 233.5 273.456 234.514V238.803C273.456 239.658 273.576 240.341 273.816 240.851V241H271.637ZM269.29 239.462C269.712 239.462 270.107 239.359 270.477 239.154C270.852 238.949 271.133 238.674 271.32 238.328V236.535H270.169C269.378 236.535 268.783 236.673 268.385 236.948C267.986 237.224 267.787 237.613 267.787 238.117C267.787 238.527 267.922 238.855 268.191 239.102C268.467 239.342 268.833 239.462 269.29 239.462ZM275.337 236.377C275.337 234.824 275.642 233.594 276.251 232.686C276.866 231.771 277.722 231.314 278.817 231.314C279.263 231.314 279.667 231.396 280.03 231.561V227.5H282.157V231.596C282.532 231.408 282.972 231.314 283.476 231.314C284.565 231.314 285.418 231.769 286.033 232.677C286.654 233.579 286.965 234.874 286.965 236.562C286.965 237.985 286.654 239.11 286.033 239.937C285.412 240.763 284.565 241.176 283.493 241.176C283.007 241.176 282.562 241.088 282.157 240.912V244.656H280.03V240.947C279.673 241.1 279.263 241.176 278.8 241.176C277.774 241.176 276.954 240.798 276.339 240.042C275.729 239.28 275.398 238.234 275.346 236.904L275.337 236.377ZM284.829 236.377C284.829 235.311 284.659 234.487 284.319 233.907C283.979 233.321 283.499 233.028 282.878 233.028C282.614 233.028 282.374 233.066 282.157 233.143V239.383C282.351 239.441 282.597 239.471 282.896 239.471C284.185 239.471 284.829 238.439 284.829 236.377ZM277.464 236.562C277.464 237.511 277.622 238.234 277.938 238.732C278.255 239.225 278.724 239.471 279.345 239.471C279.608 239.471 279.837 239.441 280.03 239.383V233.116C279.831 233.058 279.608 233.028 279.362 233.028C278.753 233.028 278.284 233.312 277.956 233.881C277.628 234.443 277.464 235.337 277.464 236.562ZM294.743 231.49H296.87V241H294.743V234.654L291.017 241H288.89V231.49H291.017V237.836L294.743 231.49ZM305.079 231.49H307.206V241H305.079V234.654L301.353 241H299.226V231.49H301.353V237.836L305.079 231.49ZM306.081 227.843C306.081 228.581 305.823 229.179 305.308 229.636C304.792 230.093 304.104 230.321 303.242 230.321C302.381 230.321 301.692 230.093 301.177 229.636C300.661 229.179 300.403 228.581 300.403 227.843H302.003C302.003 228.229 302.111 228.531 302.328 228.748C302.551 228.959 302.855 229.064 303.242 229.064C303.629 229.064 303.931 228.959 304.147 228.748C304.364 228.531 304.473 228.229 304.473 227.843H306.081ZM321.444 233.187H318.359V241H316.224V233.187H313.174V231.49H321.444V233.187ZM322.209 236.157C322.209 235.226 322.394 234.388 322.763 233.644C323.132 232.894 323.65 232.319 324.318 231.921C324.986 231.517 325.754 231.314 326.621 231.314C327.904 231.314 328.944 231.728 329.741 232.554C330.544 233.38 330.978 234.476 331.042 235.841L331.051 236.342C331.051 237.279 330.869 238.117 330.506 238.855C330.148 239.594 329.633 240.165 328.959 240.569C328.291 240.974 327.518 241.176 326.639 241.176C325.297 241.176 324.222 240.73 323.413 239.84C322.61 238.943 322.209 237.751 322.209 236.263V236.157ZM324.345 236.342C324.345 237.32 324.547 238.088 324.951 238.645C325.355 239.195 325.918 239.471 326.639 239.471C327.359 239.471 327.919 239.189 328.317 238.627C328.722 238.064 328.924 237.241 328.924 236.157C328.924 235.196 328.716 234.435 328.3 233.872C327.89 233.31 327.33 233.028 326.621 233.028C325.924 233.028 325.37 233.307 324.96 233.863C324.55 234.414 324.345 235.24 324.345 236.342ZM333.02 241V231.49H336.878C338.179 231.49 339.169 231.719 339.849 232.176C340.528 232.627 340.868 233.277 340.868 234.127C340.868 234.566 340.73 234.962 340.455 235.313C340.186 235.659 339.784 235.926 339.251 236.113C339.872 236.242 340.364 236.503 340.728 236.896C341.091 237.288 341.272 237.751 341.272 238.284C341.272 239.169 340.944 239.843 340.288 240.306C339.638 240.769 338.7 241 337.476 241H333.02ZM335.155 236.948V239.312H337.493C338.589 239.312 339.137 238.92 339.137 238.135C339.137 237.344 338.58 236.948 337.467 236.948H335.155ZM335.155 235.419H336.913C338.126 235.419 338.732 235.062 338.732 234.347C338.732 233.597 338.158 233.21 337.01 233.187H335.155V235.419ZM348.805 241C348.711 240.818 348.629 240.522 348.559 240.112C347.879 240.821 347.047 241.176 346.062 241.176C345.107 241.176 344.328 240.903 343.725 240.358C343.121 239.813 342.819 239.14 342.819 238.337C342.819 237.323 343.194 236.547 343.944 236.008C344.7 235.463 345.778 235.19 347.179 235.19H348.488V234.566C348.488 234.074 348.351 233.682 348.075 233.389C347.8 233.09 347.381 232.94 346.818 232.94C346.332 232.94 345.934 233.063 345.623 233.31C345.312 233.55 345.157 233.857 345.157 234.232H343.021C343.021 233.711 343.194 233.225 343.54 232.773C343.886 232.316 344.354 231.959 344.946 231.701C345.544 231.443 346.209 231.314 346.941 231.314C348.055 231.314 348.942 231.596 349.604 232.158C350.267 232.715 350.606 233.5 350.624 234.514V238.803C350.624 239.658 350.744 240.341 350.984 240.851V241H348.805ZM346.458 239.462C346.88 239.462 347.275 239.359 347.645 239.154C348.02 238.949 348.301 238.674 348.488 238.328V236.535H347.337C346.546 236.535 345.951 236.673 345.553 236.948C345.154 237.224 344.955 237.613 344.955 238.117C344.955 238.527 345.09 238.855 345.359 239.102C345.635 239.342 346.001 239.462 346.458 239.462ZM361.188 236.342C361.188 237.812 360.854 238.987 360.187 239.866C359.519 240.739 358.622 241.176 357.497 241.176C356.454 241.176 355.619 240.833 354.992 240.147V244.656H352.856V231.49H354.825L354.913 232.457C355.54 231.695 356.393 231.314 357.471 231.314C358.631 231.314 359.539 231.748 360.195 232.615C360.857 233.477 361.188 234.675 361.188 236.21V236.342ZM359.062 236.157C359.062 235.208 358.871 234.455 358.49 233.898C358.115 233.342 357.576 233.063 356.873 233.063C356 233.063 355.373 233.424 354.992 234.145V238.363C355.379 239.102 356.012 239.471 356.891 239.471C357.57 239.471 358.101 239.198 358.481 238.653C358.868 238.103 359.062 237.271 359.062 236.157ZM368.686 241C368.592 240.818 368.51 240.522 368.439 240.112C367.76 240.821 366.928 241.176 365.943 241.176C364.988 241.176 364.209 240.903 363.605 240.358C363.002 239.813 362.7 239.14 362.7 238.337C362.7 237.323 363.075 236.547 363.825 236.008C364.581 235.463 365.659 235.19 367.06 235.19H368.369V234.566C368.369 234.074 368.231 233.682 367.956 233.389C367.681 233.09 367.262 232.94 366.699 232.94C366.213 232.94 365.814 233.063 365.504 233.31C365.193 233.55 365.038 233.857 365.038 234.232H362.902C362.902 233.711 363.075 233.225 363.421 232.773C363.767 232.316 364.235 231.959 364.827 231.701C365.425 231.443 366.09 231.314 366.822 231.314C367.936 231.314 368.823 231.596 369.485 232.158C370.147 232.715 370.487 233.5 370.505 234.514V238.803C370.505 239.658 370.625 240.341 370.865 240.851V241H368.686ZM366.339 239.462C366.761 239.462 367.156 239.359 367.525 239.154C367.9 238.949 368.182 238.674 368.369 238.328V236.535H367.218C366.427 236.535 365.832 236.673 365.434 236.948C365.035 237.224 364.836 237.613 364.836 238.117C364.836 238.527 364.971 238.855 365.24 239.102C365.516 239.342 365.882 239.462 366.339 239.462ZM373.045 243.883L371.894 243.197C372.233 242.664 372.465 242.198 372.588 241.8C372.717 241.407 372.784 241.006 372.79 240.596V238.935H374.715L374.706 240.473C374.7 241.094 374.542 241.715 374.231 242.336C373.927 242.963 373.531 243.479 373.045 243.883ZM151.886 260.471C152.419 260.471 152.861 260.315 153.213 260.005C153.564 259.694 153.752 259.311 153.775 258.854H155.788C155.765 259.445 155.58 259.999 155.234 260.515C154.889 261.024 154.42 261.429 153.828 261.728C153.236 262.026 152.598 262.176 151.912 262.176C150.582 262.176 149.527 261.745 148.748 260.884C147.969 260.022 147.579 258.833 147.579 257.315V257.096C147.579 255.648 147.966 254.491 148.739 253.624C149.513 252.751 150.567 252.314 151.903 252.314C153.034 252.314 153.954 252.646 154.663 253.308C155.378 253.964 155.753 254.828 155.788 255.9H153.775C153.752 255.355 153.564 254.907 153.213 254.556C152.867 254.204 152.425 254.028 151.886 254.028C151.194 254.028 150.661 254.28 150.286 254.784C149.911 255.282 149.721 256.041 149.715 257.061V257.403C149.715 258.435 149.899 259.205 150.269 259.715C150.644 260.219 151.183 260.471 151.886 260.471ZM157.563 262V252.49H161.422C162.723 252.49 163.713 252.719 164.393 253.176C165.072 253.627 165.412 254.277 165.412 255.127C165.412 255.566 165.274 255.962 164.999 256.313C164.729 256.659 164.328 256.926 163.795 257.113C164.416 257.242 164.908 257.503 165.271 257.896C165.635 258.288 165.816 258.751 165.816 259.284C165.816 260.169 165.488 260.843 164.832 261.306C164.182 261.769 163.244 262 162.02 262H157.563ZM159.699 257.948V260.312H162.037C163.133 260.312 163.681 259.92 163.681 259.135C163.681 258.344 163.124 257.948 162.011 257.948H159.699ZM159.699 256.419H161.457C162.67 256.419 163.276 256.062 163.276 255.347C163.276 254.597 162.702 254.21 161.554 254.187H159.699V256.419ZM175.282 252.49V262H173.155V258.511H171.16L169.13 262H166.915L169.156 258.159C168.57 257.913 168.119 257.562 167.803 257.104C167.492 256.647 167.337 256.123 167.337 255.531C167.337 254.646 167.677 253.923 168.356 253.36C169.042 252.792 169.965 252.502 171.125 252.49H175.282ZM169.473 255.584C169.473 255.982 169.619 256.308 169.912 256.56C170.211 256.806 170.592 256.929 171.055 256.929H173.155V254.187H171.187C170.665 254.187 170.249 254.318 169.938 254.582C169.628 254.846 169.473 255.18 169.473 255.584ZM186.022 258.177H184.889V262H182.753V258.177H181.628L179.439 262H176.82L179.976 257.052L176.987 252.49H179.598L181.751 256.226H182.753V252.49H184.889V256.226H185.899L188.062 252.49H190.672L187.692 257.025L190.865 262H188.211L186.022 258.177ZM198.125 252.49H200.252V262H198.125V255.654L194.398 262H192.271V252.49H194.398V258.836L198.125 252.49ZM210.008 254.187H206.923V262H204.787V254.187H201.737V252.49H210.008V254.187ZM215.062 262.176C213.708 262.176 212.609 261.751 211.766 260.901C210.928 260.046 210.509 258.909 210.509 257.491V257.228C210.509 256.278 210.69 255.432 211.054 254.688C211.423 253.938 211.938 253.354 212.601 252.938C213.263 252.522 214.001 252.314 214.815 252.314C216.11 252.314 217.109 252.728 217.812 253.554C218.521 254.38 218.876 255.549 218.876 257.061V257.922H212.662C212.727 258.707 212.987 259.328 213.444 259.785C213.907 260.242 214.487 260.471 215.185 260.471C216.163 260.471 216.96 260.075 217.575 259.284L218.727 260.383C218.346 260.951 217.836 261.394 217.197 261.71C216.564 262.021 215.853 262.176 215.062 262.176ZM214.807 254.028C214.221 254.028 213.746 254.233 213.383 254.644C213.025 255.054 212.797 255.625 212.697 256.357H216.767V256.199C216.72 255.484 216.529 254.945 216.195 254.582C215.861 254.213 215.398 254.028 214.807 254.028ZM224.448 260.471C224.981 260.471 225.424 260.315 225.775 260.005C226.127 259.694 226.314 259.311 226.338 258.854H228.351C228.327 259.445 228.143 259.999 227.797 260.515C227.451 261.024 226.982 261.429 226.391 261.728C225.799 262.026 225.16 262.176 224.475 262.176C223.145 262.176 222.09 261.745 221.311 260.884C220.531 260.022 220.142 258.833 220.142 257.315V257.096C220.142 255.648 220.528 254.491 221.302 253.624C222.075 252.751 223.13 252.314 224.466 252.314C225.597 252.314 226.517 252.646 227.226 253.308C227.94 253.964 228.315 254.828 228.351 255.9H226.338C226.314 255.355 226.127 254.907 225.775 254.556C225.43 254.204 224.987 254.028 224.448 254.028C223.757 254.028 223.224 254.28 222.849 254.784C222.474 255.282 222.283 256.041 222.277 257.061V257.403C222.277 258.435 222.462 259.205 222.831 259.715C223.206 260.219 223.745 260.471 224.448 260.471ZM232.262 255.514H234.354C235.133 255.514 235.812 255.648 236.393 255.918C236.973 256.188 237.412 256.565 237.711 257.052C238.016 257.538 238.168 258.104 238.168 258.748C238.168 259.727 237.822 260.512 237.131 261.104C236.439 261.695 235.52 261.994 234.371 262H230.126V252.49H232.262V255.514ZM232.262 257.228V260.295H234.345C234.866 260.295 235.276 260.166 235.575 259.908C235.88 259.645 236.032 259.272 236.032 258.792C236.032 258.312 235.883 257.934 235.584 257.658C235.291 257.377 234.893 257.233 234.389 257.228H232.262ZM248.267 260.471C248.8 260.471 249.242 260.315 249.594 260.005C249.945 259.694 250.133 259.311 250.156 258.854H252.169C252.146 259.445 251.961 259.999 251.615 260.515C251.27 261.024 250.801 261.429 250.209 261.728C249.617 262.026 248.979 262.176 248.293 262.176C246.963 262.176 245.908 261.745 245.129 260.884C244.35 260.022 243.96 258.833 243.96 257.315V257.096C243.96 255.648 244.347 254.491 245.12 253.624C245.894 252.751 246.948 252.314 248.284 252.314C249.415 252.314 250.335 252.646 251.044 253.308C251.759 253.964 252.134 254.828 252.169 255.9H250.156C250.133 255.355 249.945 254.907 249.594 254.556C249.248 254.204 248.806 254.028 248.267 254.028C247.575 254.028 247.042 254.28 246.667 254.784C246.292 255.282 246.102 256.041 246.096 257.061V257.403C246.096 258.435 246.28 259.205 246.649 259.715C247.024 260.219 247.563 260.471 248.267 260.471ZM266.319 262H264.184V258.159H260.483V262H258.348V252.49H260.483V256.454H264.184V252.49H266.319V262ZM274.282 262C274.188 261.818 274.106 261.522 274.036 261.112C273.356 261.821 272.524 262.176 271.54 262.176C270.585 262.176 269.806 261.903 269.202 261.358C268.599 260.813 268.297 260.14 268.297 259.337C268.297 258.323 268.672 257.547 269.422 257.008C270.178 256.463 271.256 256.19 272.656 256.19H273.966V255.566C273.966 255.074 273.828 254.682 273.553 254.389C273.277 254.09 272.858 253.94 272.296 253.94C271.81 253.94 271.411 254.063 271.101 254.31C270.79 254.55 270.635 254.857 270.635 255.232H268.499C268.499 254.711 268.672 254.225 269.018 253.773C269.363 253.316 269.832 252.959 270.424 252.701C271.021 252.443 271.687 252.314 272.419 252.314C273.532 252.314 274.42 252.596 275.082 253.158C275.744 253.715 276.084 254.5 276.102 255.514V259.803C276.102 260.658 276.222 261.341 276.462 261.851V262H274.282ZM271.936 260.462C272.357 260.462 272.753 260.359 273.122 260.154C273.497 259.949 273.778 259.674 273.966 259.328V257.535H272.814C272.023 257.535 271.429 257.673 271.03 257.948C270.632 258.224 270.433 258.613 270.433 259.117C270.433 259.527 270.567 259.855 270.837 260.102C271.112 260.342 271.479 260.462 271.936 260.462ZM283.985 259.372L286.798 252.49H289.47V262H287.334V255.707L284.715 262H283.265L280.637 255.672V262H278.501V252.49H281.19L283.985 259.372ZM297.811 252.49H299.938V262H297.811V255.654L294.084 262H291.957V252.49H294.084V258.836L297.811 252.49Z" fill="#C6C6C6"/>
</svg>
