<?xml version="1.0" encoding="UTF-8"?>
<!DOCTYPE svg PUBLIC "-//W3C//DTD SVG 1.1//EN" "http://www.w3.org/Graphics/SVG/1.1/DTD/svg11.dtd">
<!-- Creator: CorelDRAW 2018 (64-Bit) -->
<svg xmlns="http://www.w3.org/2000/svg" xml:space="preserve" width="150mm" height="300mm" version="1.1" style="shape-rendering:geometricPrecision; text-rendering:geometricPrecision; image-rendering:optimizeQuality; fill-rule:evenodd; clip-rule:evenodd"
viewBox="0 0 1500 3000"
 xmlns:xlink="http://www.w3.org/1999/xlink">
 <defs>
  <style type="text/css">
   <![CDATA[
    .fil2 {fill:none}
    .fil0 {fill:#333333}
    .fil1 {fill:#333333;fill-rule:nonzero}
   ]]>
  </style>
 </defs>
 <g id="Layer_x0020_1">
  <metadata id="CorelCorpID_0Corel-Layer"/>
  <g id="_1956326256928">
   <path class="fil0" d="M630.41 861.656c-2.685,-49.82 23.716,-94.277 66.289,-116.435 78.02,-40.61 172.822,13.78 177.005,101.578 3.298,69.218 -49.498,124.646 -113.911,128.799 -69.992,4.513 -125.874,-48.862 -129.383,-113.942zm17.774 132.701c-4.836,14.082 -40.221,85.919 -50.135,108.33 -7.717,17.443 -16.739,36.71 -25.338,54.064 -11.353,22.911 -2.214,38.774 19.897,49 26.896,12.438 40.02,1.641 50.068,-18.833 13.436,-27.377 67.356,-148.695 75.963,-161.989 49.468,3.482 82.143,3.998 128.177,-26.022 118.573,-77.323 96.626,-253.067 -23.787,-304.053 -164.139,-69.501 -310.573,114.706 -213.933,257.924 5.118,7.585 11.274,15.986 17.956,21.715l21.132 19.864z"/>
   <path class="fil0" d="M744.228 757.155l15.581 0c5.54,0 10.072,4.532 10.072,10.072l0 69.317 69.317 0c5.539,0 10.071,4.532 10.071,10.071l0 15.581c0,5.54 -4.532,10.072 -10.071,10.072l-69.317 0 0 69.316c0,5.54 -4.532,10.072 -10.072,10.072l-15.581 0c-5.539,0 -10.071,-4.532 -10.071,-10.072l0 -69.316 -69.317 0c-5.539,0 -10.072,-4.532 -10.072,-10.072l0 -15.581c0,-5.539 4.533,-10.071 10.072,-10.071l69.317 0 0 -69.317c0,-5.54 4.532,-10.072 10.071,-10.072z"/>
  </g>
  <path class="fil1" d="M340.211 1333.63l44.45 0 0 47.414 6.35 0 0 22.86 -14.393 0 -0.847 -11.007 -33.02 0 -0.847 11.007 -14.393 0 0 -22.86 5.503 0c1.637,-1.863 2.865,-3.966 3.683,-6.308 0.818,-2.343 1.284,-4.473 1.397,-6.392l2.117 -34.714zm29.21 47.414l0 -35.561 -15.664 0 -1.27 21.167c-0.169,3.443 -1.016,6.915 -2.54,10.414 -0.62,1.468 -1.326,2.794 -2.116,3.98l21.59 0z"/>
  <path id="1" class="fil1" d="M435.884 1349.717c0,-3.387 -1.693,-5.08 -5.08,-5.08l-14.393 0c-3.387,0 -5.08,1.693 -5.08,5.08l0 27.093c0,3.387 1.693,5.08 5.08,5.08l14.393 0c3.387,0 5.08,-1.693 5.08,-5.08l0 -27.093zm15.24 27.093c0,5.927 -1.34,10.231 -4.021,12.912 -2.682,2.681 -6.985,4.022 -12.912,4.022l-21.167 0c-5.927,0 -10.231,-1.341 -12.912,-4.022 -2.681,-2.681 -4.021,-6.985 -4.021,-12.912l0 -27.093c0,-5.927 1.34,-10.231 4.021,-12.912 2.681,-2.681 6.985,-4.022 12.912,-4.022l21.167 0c5.927,0 10.23,1.341 12.912,4.022 2.681,2.681 4.021,6.985 4.021,12.912l0 27.093z"/>
  <path id="2" class="fil1" d="M474.831 1356.49l20.32 0c5.927,0 10.231,1.341 12.912,4.022 2.681,2.681 4.022,6.985 4.022,12.912l0 2.54c0,5.926 -1.341,10.23 -4.022,12.911 -2.681,2.681 -6.985,4.022 -12.912,4.022l-35.56 0 0 -59.267 46.99 0 0 11.853 -31.75 0 0 11.007zm22.014 16.934c0,-3.387 -1.694,-5.08 -5.081,-5.08l-16.933 0 0 12.7 16.933 0c3.387,0 5.081,-1.694 5.081,-5.08l0 -2.54z"/>
  <path id="3" class="fil1" d="M530.288 1392.897l-16.51 0 22.437 -59.267 16.933 0 22.437 59.267 -16.51 0 -3.81 -10.583 -21.167 0 -3.81 10.583zm7.62 -21.59l13.547 0 -6.773 -19.897 -6.774 19.897z"/>
  <path id="4" class="fil1" d="M579.819 1333.63l33.867 0c5.531,0 9.595,1.256 12.192,3.768 2.596,2.512 3.895,6.336 3.895,11.472 0,3.387 -0.734,6.139 -2.202,8.255 -1.467,2.117 -3.274,3.599 -5.418,4.445 4.572,1.242 7.676,4.29 9.313,9.144 0.564,1.75 0.847,3.782 0.847,6.096 0,5.532 -1.299,9.596 -3.895,12.192 -2.597,2.597 -6.661,3.895 -12.192,3.895l-36.407 0 0 -59.267zm37.254 40.64c0,-3.386 -1.694,-5.08 -5.081,-5.08l-16.933 0 0 11.854 16.933 0c3.387,0 5.081,-1.694 5.081,-5.08l0 -1.694zm-2.541 -23.707c0,-3.386 -1.693,-5.08 -5.08,-5.08l-14.393 0 0 11.854 14.393 0c3.387,0 5.08,-1.693 5.08,-5.08l0 -1.694z"/>
  <path id="5" class="fil1" d="M655.173 1353.95l20.32 0c5.927,0 10.231,1.341 12.912,4.022 2.681,2.681 4.022,6.985 4.022,12.912l0 5.08c0,5.926 -1.341,10.23 -4.022,12.911 -2.681,2.681 -6.985,4.022 -12.912,4.022l-35.56 0 0 -59.267 15.24 0 0 20.32zm22.014 16.934c0,-3.387 -1.694,-5.08 -5.081,-5.08l-16.933 0 0 15.24 16.933 0c3.387,0 5.081,-1.694 5.081,-5.08l0 -5.08z"/>
  <polygon id="6" class="fil1" points="722.06,1392.897 706.82,1392.897 706.82,1345.483 689.04,1345.483 689.04,1333.63 739.84,1333.63 739.84,1345.483 722.06,1345.483 "/>
  <polygon id="7" class="fil1" points="792.757,1392.897 745.767,1392.897 745.767,1333.63 792.757,1333.63 792.757,1345.483 761.007,1345.483 761.007,1356.914 785.984,1356.914 785.984,1368.767 761.007,1368.767 761.007,1381.044 792.757,1381.044 "/>
  <path id="8" class="fil1" d="M821.544 1380.62c14.394,0.847 24.554,1.27 30.48,1.27 1.299,0 2.329,-0.381 3.091,-1.143 0.762,-0.762 1.143,-1.792 1.143,-3.09l0 -3.387c0,-3.386 -1.694,-5.08 -5.08,-5.08l-20.32 0 0 -11.853 18.626 0c3.387,0 5.08,-1.693 5.08,-5.08l0 -1.694c0,-3.386 -1.693,-5.08 -5.08,-5.08l-27.093 0 0 -11.853 31.327 0c5.531,0 9.595,1.256 12.192,3.768 2.596,2.512 3.895,6.336 3.895,11.472 0,3.387 -0.777,6.139 -2.329,8.255 -1.552,2.117 -3.598,3.599 -6.138,4.445 4.572,1.242 7.676,4.29 9.313,9.144 0.565,1.75 0.847,3.782 0.847,6.096l0 0.847c0,5.532 -1.298,9.596 -3.895,12.192 -2.596,2.596 -6.66,3.895 -12.192,3.895 -9.426,0 -20.715,-0.565 -33.867,-1.694l0 -11.43z"/>
  <path id="9" class="fil1" d="M889.701 1392.897l-16.51 0 22.437 -59.267 16.933 0 22.437 59.267 -16.51 0 -3.81 -10.583 -21.167 0 -3.81 10.583zm7.62 -21.59l13.547 0 -6.773 -19.897 -6.774 19.897z"/>
  <path id="10" class="fil1" d="M990.032 1392.897l-15.24 0 0 -19.473 -11.43 0 -10.583 19.473 -16.087 0 11.007 -20.32c-3.613,-0.847 -6.209,-2.568 -7.79,-5.165 -1.58,-2.596 -2.37,-6.237 -2.37,-10.922l0 -5.927c0,-5.926 1.34,-10.23 4.021,-12.911 2.681,-2.681 6.985,-4.022 12.912,-4.022l35.56 0 0 59.267zm-37.253 -36.407c0,3.387 1.693,5.08 5.08,5.08l16.933 0 0 -16.087 -16.933 0c-3.387,0 -5.08,1.694 -5.08,5.08l0 5.927z"/>
  <path id="11" class="fil1" d="M1000.192 1333.63l33.867 0c5.531,0 9.595,1.256 12.192,3.768 2.596,2.512 3.895,6.336 3.895,11.472 0,3.387 -0.734,6.139 -2.202,8.255 -1.467,2.117 -3.274,3.599 -5.418,4.445 4.572,1.242 7.676,4.29 9.313,9.144 0.564,1.75 0.847,3.782 0.847,6.096 0,5.532 -1.299,9.596 -3.895,12.192 -2.597,2.597 -6.661,3.895 -12.192,3.895l-36.407 0 0 -59.267zm37.254 40.64c0,-3.386 -1.694,-5.08 -5.081,-5.08l-16.933 0 0 11.854 16.933 0c3.387,0 5.081,-1.694 5.081,-5.08l0 -1.694zm-2.541 -23.707c0,-3.386 -1.693,-5.08 -5.08,-5.08l-14.393 0 0 11.854 14.393 0c3.387,0 5.08,-1.693 5.08,-5.08l0 -1.694z"/>
  <path id="12" class="fil1" d="M1103.486 1332.783c1.411,0 3.951,0.283 7.62,0.847l0 11.43 -3.386 0c-0.847,0 -1.609,0.268 -2.286,0.804 -0.678,0.537 -1.186,1.115 -1.524,1.736l-8.044 15.24 16.51 30.057 -16.087 0 -13.123 -24.13 -7.62 0 0 24.13 -15.24 0 0 -59.267 15.24 0 0 23.284 7.62 0 8.467 -16.087c1.242,-2.371 2.78,-4.304 4.614,-5.8 1.835,-1.496 4.248,-2.244 7.239,-2.244z"/>
  <path id="13" class="fil1" d="M1131.68 1393.744c-2.822,0 -5.729,-0.283 -8.721,-0.847l0 -11.43 7.62 0c1.637,0 2.766,-0.649 3.387,-1.947 0.282,-0.565 0.423,-1.172 0.423,-1.821 0,-0.649 -0.141,-1.227 -0.423,-1.735l-23.283 -42.334 16.933 0 15.24 30.057 12.7 -30.057 16.934 0 -21.591 46.567c-1.975,4.459 -4.346,7.789 -7.112,9.991 -3.048,2.37 -7.083,3.556 -12.107,3.556z"/>
  <g id="_1956326253344">
   <path class="fil0" d="M724.331 1490.614c2.283,368.412 141.079,802.156 490.481,981.062 35.944,18.405 41.105,17.094 73.102,40.23 -29.795,-12.877 -12.059,-5.455 -42.004,-17.434 -391.201,-156.494 -550.312,-612.63 -558.579,-1003.858l37 0z"/>
  </g>
  <path class="fil2" d="M705.831 1490.614c0,377.536 167.103,848.285 541.413,1000.579 16.75,6.815 25.203,11.379 40.67,20.713"/>
  <g id="_1956326253920">
   <path class="fil0" d="M1283.101 2519.685c-14.644,-15.949 -40.948,-50.952 -36.187,-74.997 15.247,21.572 24.082,38.05 43.862,58.029 4.686,2.119 6.766,7.636 4.647,12.321 -2.12,4.686 -7.636,6.766 -12.322,4.647z"/>
  </g>
  <path class="fil2" d="M1286.939 2511.201c-8.099,-3.663 -40.962,-55.587 -40.025,-66.513"/>
  <g id="_1956326251968">
   <path class="fil0" d="M1292.14 2518.924c-21.264,4.078 -64.87,8.062 -82.824,-8.625 26.363,-1.633 45.033,-0.493 72.42,-6.821 4.265,-2.874 10.052,-1.745 12.925,2.521 2.873,4.265 1.745,10.052 -2.521,12.925z"/>
  </g>
  <path class="fil2" d="M1286.938 2511.201c-7.373,4.965 -68.819,5.637 -77.622,-0.901"/>
 </g>
</svg>
