<?xml version="1.0" encoding="UTF-8"?>
<!DOCTYPE svg PUBLIC "-//W3C//DTD SVG 1.1//EN" "http://www.w3.org/Graphics/SVG/1.1/DTD/svg11.dtd">
<!-- Creator: CorelDRAW 2018 (64-Bit) -->
<svg xmlns="http://www.w3.org/2000/svg" xml:space="preserve" width="5mm" height="5mm" version="1.1" style="shape-rendering:geometricPrecision; text-rendering:geometricPrecision; image-rendering:optimizeQuality; fill-rule:evenodd; clip-rule:evenodd"
viewBox="0 0 50 50"
 xmlns:xlink="http://www.w3.org/1999/xlink">
 <defs>
  <style type="text/css">
   <![CDATA[
    .fil0 {fill:white}
   ]]>
  </style>
 </defs>
 <g id="Layer_x0020_1">
  <metadata id="CorelCorpID_0Corel-Layer"/>
  <path class="fil0" d="M16.895 34.891c-0.616,0 -0.907,-0.048 -1.373,-0.288 -0.4,-0.205 -0.534,-0.342 -0.808,-0.656 -1.826,-2.09 -0.47,-5.013 2.181,-5.013 0.643,0 1.684,0.555 2.029,0.9 1.777,1.777 0.568,5.057 -2.029,5.057zm33.105 3.676l0 0.631c-0.034,0.268 -0.125,0.49 -0.313,0.653 -0.54,0.47 -3.502,0.395 -4.611,0.565 -1.242,0.191 -1.699,-0.108 -1.802,-1.143 -0.089,-0.897 -0.208,-1.822 -0.208,-2.722 -0.259,0.125 -4.044,0.356 -4.784,0.392l-7.87 0.626c-1.872,0.279 -4.59,0.227 -6.347,0.488 -0.45,0.067 -1.218,0.119 -1.61,0.149l-4.682 0.298c0,0.944 0.208,1.954 -0.878,1.954l-6.934 0c-0.357,0 -0.781,-0.27 -0.781,-0.586 0,-1.042 0.411,-0.977 1.757,-0.977 0,-0.832 -0.131,-1.691 -0.189,-2.447 -0.167,-2.174 -0.494,-5.642 -0.494,-7.612 0,-1.332 0.95,-3.439 1.368,-4.491l3.251 -8.37c0.634,-1.626 0.907,-2.842 2.031,-3.926l0.306 -0.28c0.224,-0.201 0.131,-0.128 0.397,-0.287 1.226,-0.736 1.75,-0.862 3.488,-0.907l12.081 -0.906c0.37,-0.05 0.917,-0.037 1.368,-0.098 1.633,-0.221 3.234,-0.406 4.734,0.495 1.714,1.031 2.337,2.652 3.454,4.554 0.362,0.615 0.639,1.136 0.999,1.735l3.906 6.739c1.538,2.564 1.333,3.095 1.588,6.42l0.586 7.421c0.045,0.599 0.149,1.155 0.189,1.632zm-7.031 -5.727c-1.647,0 -2.93,-1.329 -2.93,-2.636 0,-0.966 0.056,-1.723 0.9,-2.519 0.21,-0.199 0.531,-0.415 0.825,-0.542 2.798,-1.203 5.551,2.387 3.283,4.748 -0.506,0.526 -1.084,0.949 -2.078,0.949zm-27.344 -7.129c0.032,-0.379 0.626,-1.814 0.795,-2.232l1.729 -4.521c0.285,-0.764 0.542,-1.511 0.865,-2.26 1.023,-2.369 2.151,-2.052 5.503,-2.309l10.18 -0.758c0.951,-0.126 1.924,-0.153 2.606,0.265 0.564,0.347 1.127,1.122 1.433,1.692l3.981 6.957c0.164,0.276 0.471,0.74 0.545,1.018l-10.337 0.796c-3.261,0.35 -7.026,0.5 -10.283,0.849l-7.017 0.503z"/>
  <path class="fil0" d="M0.586 32.352c0,0.613 1.059,1.261 1.744,1.771l4.031 3.098c0.34,0.272 0.647,0.493 0.986,0.773 0.329,0.271 0.717,0.579 1.051,0.803 -0.094,-0.354 -3.374,-4.466 -3.822,-5.064l-1.921 -2.473c-0.921,-1.139 -2.069,0.978 -2.069,1.092z"/>
  <path class="fil0" d="M-0 38.016c0,0.757 0.848,0.717 1.545,0.799 0.662,0.078 1.426,0.189 2.149,0.293l3.198 0.414c0.36,0.051 0.796,0.147 1.116,0.154 -0.155,-0.212 -0.231,-0.196 -0.485,-0.297l-6.116 -2.478c-0.341,-0.157 -0.686,-0.559 -1.026,-0.173 -0.095,0.108 -0.381,1.088 -0.381,1.288z"/>
  <path class="fil0" d="M9.277 36.747c-0.03,-0.366 -1.323,-3.27 -1.549,-3.822 -1.702,-4.156 -1.366,-3.908 -3.138,-2.721 0,0.772 0.135,0.634 0.976,1.757 0.411,0.548 0.801,1.034 1.228,1.605 0.431,0.576 0.791,1.06 1.227,1.605 0.299,0.373 0.943,1.365 1.256,1.576z"/>
  <polygon class="fil0" points="9.277,36.747 9.277,36.844 9.391,36.763 "/>
 </g>
</svg>
