<?xml version="1.0" encoding="UTF-8"?>
<!DOCTYPE svg PUBLIC "-//W3C//DTD SVG 1.1//EN" "http://www.w3.org/Graphics/SVG/1.1/DTD/svg11.dtd">
<!-- Creator: CorelDRAW 2018 (64-Bit) -->
<svg xmlns="http://www.w3.org/2000/svg" xml:space="preserve" width="24mm" height="24mm" version="1.1" style="shape-rendering:geometricPrecision; text-rendering:geometricPrecision; image-rendering:optimizeQuality; fill-rule:evenodd; clip-rule:evenodd"
viewBox="0 0 240 240"
 xmlns:xlink="http://www.w3.org/1999/xlink">
 <defs>
  <style type="text/css">
   <![CDATA[
    .fil0 {fill:#FB0102}
   ]]>
  </style>
 </defs>
 <g id="Layer_x0020_1">
  <metadata id="CorelCorpID_0Corel-Layer"/>
  <path class="fil0" d="M184.418 110.133c1.929,0.207 13.765,0.049 15.636,-0.226 2.934,-0.431 4.263,-2.076 5.785,-3.589 3.136,-3.116 6.089,-6.151 9.196,-9.172 1.155,0.499 7.042,6.724 7.089,6.841 0.531,1.349 -0.442,39.544 0.051,45.964l0.036 1.819c-0.427,4.401 0.712,17.155 -0.66,18.682 -0.672,0.748 -4.426,4.754 -5.232,4.678 -2.058,-0.194 -8.903,-10.974 -14.512,-11.93 -2.136,-0.364 -6.548,-0.116 -8.922,-0.118 -4.559,-0.004 -9.726,0.456 -11.257,6.524 -0.993,3.934 0.096,12.992 -0.377,17.806 -0.493,0.764 -4.179,4.365 -4.926,4.88l-83.975 0.009c-1.385,-0.549 -16.044,-17.596 -20.388,-18.971 -2.65,-0.838 -15.574,-0.4 -19.367,-0.406 -4.013,-0.007 -2.435,0.564 -6.487,-3.393 -2.99,-2.92 -2.493,-1.876 -2.485,-7.428l0.049 -79.05c1.245,-1.186 2.365,-2.123 3.585,-3.151 1.216,-1.023 2.314,-2.596 4.068,-2.673 4.414,-0.194 9.294,0.029 13.768,0.009 6.032,-0.028 8.169,-3.59 12.624,-8.118 1.044,-1.06 2.529,-2.669 3.623,-3.475l65.927 0.053 14.661 14.575c1.711,1.733 5.347,5.872 7.817,6.863 2.05,0.822 11.523,1.023 13.997,0.495 0.856,0.402 0.705,-0.764 0.705,2.932 0.02,17.588 0.139,18.332 -0.029,19.57zm-84.939 -69.277l-0.151 7.146c-2.563,0.595 -12.453,0.173 -15.8,0.173 -10.092,0 -9.344,-0.541 -16.67,6.98 -6.486,6.657 -3.291,4.467 -19.577,4.631 -2.644,0.026 -4.45,0.739 -5.94,2.009l-8.702 7.562c-6.968,5.741 -6.492,6.734 -6.492,17.446 0,5.119 0.296,11.224 -0.065,16.225 -4.036,0.113 -4.966,-0.116 -8.57,0.939 -0.401,-9.915 -0.04,-20.6 -0.04,-30.6 0,-5.781 0.141,-8.767 -3.473,-11.698 -3.549,-2.876 -8.356,-2.061 -11.389,0.768 -3.42,3.189 -2.617,7.285 -2.617,12.805l0.039 98.754c0.544,6.324 8.42,10.141 14.059,5.84 3.628,-2.768 3.381,-6.38 3.381,-12.108 0,-5.659 -0.294,-27 0.064,-30.77 1.263,0.028 2.217,0.676 3.803,0.775 1.521,0.095 3.2,0.002 4.756,0.049 0.338,6.142 -0.286,31.732 0.176,34.384 0.616,3.531 2.819,5.192 4.589,6.987 2.656,2.693 9.046,9.86 12.273,10.843 4.577,1.395 16.725,-0.239 22.585,0.549l16.709 16.699c2.34,2.155 4.401,2.557 8.599,2.555l67.177 0.002c7.288,0 15.293,0.315 22.49,-0.008 3.023,-0.135 5.767,-2.543 7.071,-4.073 1.801,-2.113 3.786,-3.664 5.661,-5.579 7.286,-7.438 4.921,-5.717 5.474,-17.111 1.083,0.647 2.433,2.271 3.169,3.009 4.985,4.994 5.695,6.575 13.001,6.574 10.818,-0.002 9.364,-0.198 17.615,-8.52 7.226,-7.289 6.982,-4.991 7.017,-18.865l0.003 -52.18c0,-12.876 1.756,-14.823 -4.965,-21.229 -0.576,-0.548 -0.923,-1.075 -1.486,-1.637 -0.643,-0.64 -1.162,-0.995 -1.798,-1.65 -2.939,-3.028 -7.364,-8.125 -10.727,-8.952 -2.582,-0.635 -9.863,-0.569 -12.195,0.37 -2.027,0.815 -2.445,1.541 -3.799,2.776 -0.993,0.905 -2.281,2.638 -3.275,2.988 -0.131,-5.234 1.296,-11.862 -5.255,-14.727 -3.7,-1.618 -14.579,-0.156 -19.566,-0.8 -1.967,-0.939 -18.022,-19.514 -22.358,-21.328 -3.259,-1.364 -19.528,-0.369 -25.411,-0.719l-0.1 -7.318c7.161,-0.017 12.103,1.171 15.811,-3.566 3.026,-3.863 2.199,-12.39 -0.886,-15.29 -3.737,-3.513 -10.992,-2.441 -17.361,-2.441l-38.431 -0.005c-3.25,0.003 -6.179,-0.295 -8.684,1.105 -5.33,2.98 -5.27,10.903 -3.863,14.671 2.961,7.932 13.476,5.329 24.124,5.56z"/>
 </g>
</svg>
