<?xml version="1.0" encoding="UTF-8"?>
<!DOCTYPE svg PUBLIC "-//W3C//DTD SVG 1.1//EN" "http://www.w3.org/Graphics/SVG/1.1/DTD/svg11.dtd">
<!-- Creator: CorelDRAW 2018 (64-Bit) -->
<svg xmlns="http://www.w3.org/2000/svg" xml:space="preserve" width="24mm" height="24mm" version="1.1" style="shape-rendering:geometricPrecision; text-rendering:geometricPrecision; image-rendering:optimizeQuality; fill-rule:evenodd; clip-rule:evenodd"
viewBox="0 0 240 240"
 xmlns:xlink="http://www.w3.org/1999/xlink">
 <defs>
  <style type="text/css">
   <![CDATA[
    .fil0 {fill:#242021}
    .fil1 {fill:#FEFEFE}
   ]]>
  </style>
 </defs>
 <g id="Layer_x0020_1">
  <metadata id="CorelCorpID_0Corel-Layer"/>
  <path class="fil0" d="M179.244 97.826c-5.638,13.136 -25.972,5.233 -20.375,-8.598 5.254,-12.986 26.132,-4.816 20.375,8.598zm-98.273 -1.809c-4.229,15.696 -25.518,8.416 -21.12,-5.674 4.149,-13.289 24.791,-7.947 21.12,5.674zm-20.454 -28.453c-1.059,-2.891 -1.082,-1.126 0.81,-4.481 18.747,-33.245 14.623,-30.984 35.655,-30.984l47.87 -0.103c7.907,0.193 14.11,-2.068 18.376,4.914 2.547,4.168 16.917,27.34 15.883,29.972 -4.168,3.029 -50.509,1.041 -59.549,1.101 -8.723,0.057 -53.944,0.798 -59.045,-0.419zm-13.24 57.673c1.696,5.846 7.287,4.693 26.368,4.069 2.911,-3.988 2.071,-4.873 5.273,-8.295 3.931,-1.535 78.814,-1.258 82.153,0.295 2.048,3.96 0.812,6.202 4.618,9.905l21.552 0.269c1.865,-1.981 5.954,-12.221 5.958,-12.234 0.853,-3.055 1.138,-13.309 1.27,-16.9 0.219,-5.984 0.129,-12.086 0.125,-18.082 -0.006,-8.959 -1.143,-7.944 -3.137,-15.24 3.507,0.103 9.075,1.142 10.977,-2.169 2.011,-3.5 0.449,-6.334 -2.277,-8.26l-15.153 -0.173c-4.846,-7.514 -13.359,-25.722 -18.227,-31.352 -3.928,-4.542 -16.147,-2.751 -21.925,-2.852l-49.677 -0.021c-6.699,0 -17.524,-1.963 -22.135,3.561 -2.922,3.501 -16.194,26.604 -18.157,31.161 -23.539,-4.584 -19.457,7.497 -16.839,9.294 2.169,1.488 7.279,0.746 10.045,0.815 -3.362,13.03 -3.461,0.878 -3.4,24.277 0.018,6.925 1.188,27.979 2.588,31.932z"/>
  <path class="fil0" d="M207.01 132.838c-4.413,3.024 -21.049,2.252 -27.344,2.32 -6.524,0.072 -15.405,-0.883 -16.788,1.477 -0.927,1.583 -0.79,3.387 0.106,7.363 9.718,3.075 36.518,-1.161 43.286,1.817 1.712,3.42 1.738,43.978 0.381,48.312 -4.703,2.892 -9.218,-1.027 -13.944,3.13 -3.002,2.642 -5.038,7.652 -4.204,11.427 5.85,1.314 20.043,0.551 26.798,0.551 6.181,0 19.669,1.884 23.738,-2.525 1.961,-11.862 -0.337,-9.027 -7.14,-12.498 -2.023,-6.75 -0.726,-95.62 -0.835,-115.372 -0.039,-7.011 2.216,-31.778 -2.196,-35.514 -3.509,-1.149 -15.522,-0.858 -19.354,-0.089 -3.874,4.063 -2.224,15.363 -2.213,21.139 0.029,14.122 1.016,60.665 -0.291,68.462z"/>
  <path class="fil0" d="M76.986 135.805c-6.799,-3.18 -34.253,-0.111 -44.652,-3.06 -1.359,-9.224 -0.318,-53.802 -0.394,-69.273 -0.028,-5.555 1.632,-16.424 -2.18,-20.35 -4.846,-0.736 -17.509,-1.619 -20.901,1.572 -3.309,5.409 1.744,140.792 -1.48,149.773l-6.66 2.358c-1.461,4.169 -1.246,7.42 0.102,11.674 5.461,1.272 45.038,1.498 49.725,0.001 1.539,-2.792 -0.983,-8.087 -3.555,-10.893 -3.518,-3.838 -8.92,-1.646 -14.221,-2.917 -1.531,-4.7 -1.37,-43.695 -0.109,-49.106 10.872,-2.097 33.482,0.463 44.113,-1.442l0.212 -8.337z"/>
  <path class="fil1" d="M60.517 67.564c5.101,1.217 50.322,0.476 59.045,0.419 9.04,-0.06 55.381,1.928 59.549,-1.101 1.034,-2.632 -13.336,-25.804 -15.883,-29.972 -4.266,-6.982 -10.469,-4.721 -18.376,-4.914l-47.87 0.103c-21.032,0 -16.908,-2.261 -35.655,30.984 -1.892,3.355 -1.869,1.59 -0.81,4.481z"/>
  <path class="fil1" d="M80.971 96.017c3.671,-13.621 -16.971,-18.963 -21.12,-5.674 -4.398,14.09 16.891,21.37 21.12,5.674z"/>
  <path class="fil1" d="M179.244 97.826c5.757,-13.414 -15.121,-21.584 -20.375,-8.598 -5.597,13.831 14.737,21.734 20.375,8.598z"/>
 </g>
</svg>
