<?xml version="1.0" encoding="UTF-8"?>
<!DOCTYPE svg PUBLIC "-//W3C//DTD SVG 1.1//EN" "http://www.w3.org/Graphics/SVG/1.1/DTD/svg11.dtd">
<!-- Creator: CorelDRAW 2018 (64-Bit) -->
<svg xmlns="http://www.w3.org/2000/svg" xml:space="preserve" width="24mm" height="24mm" version="1.1" style="shape-rendering:geometricPrecision; text-rendering:geometricPrecision; image-rendering:optimizeQuality; fill-rule:evenodd; clip-rule:evenodd"
viewBox="0 0 240 240"
 xmlns:xlink="http://www.w3.org/1999/xlink">
 <defs>
  <style type="text/css">
   <![CDATA[
    .fil0 {fill:black}
   ]]>
  </style>
 </defs>
 <g id="Layer_x0020_1">
  <metadata id="CorelCorpID_0Corel-Layer"/>
  <g id="_1941160642320">
   <path class="fil0" d="M67.927 84.44c7.04,0 12.188,4.678 12.188,10.312l0 2.813c0,8.54 -12.143,14.468 -19.893,6.767 -7.578,-7.529 -1.201,-19.892 7.705,-19.892zm105 0c3.354,0 6.272,1.642 8.175,3.543 9.118,9.113 -1.692,24.62 -13.581,18.737l-3.237 -2.388c-0.068,-0.068 -0.165,-0.167 -0.232,-0.237 -6.694,-7.047 -1.878,-19.655 8.875,-19.655zm-81.563 -54.844l58.126 0c8.412,0 11.338,10.96 15.156,18.593l11.093 23.126 -110.156 0 8.12 -17.194c1.026,-2.051 1.784,-3.561 2.818,-5.619 3.738,-7.435 6.899,-18.906 14.843,-18.906zm-47.812 55.781l0 48.75c0,2.317 1.902,4.219 4.219,4.219l18.281 0c5.691,0 4.219,-8.468 4.219,-15.469l100.781 0c0,18.775 -2.952,15.469 22.5,15.469 2.317,0 4.219,-1.902 4.219,-4.219l0 -48.281c0,-11.335 -12.18,-30.082 -16.677,-40.979l-9.417 -19.646c-1.72,-3.455 -3.238,-6.208 -6.33,-8.201 -2.711,-1.748 -6.408,-3.83 -10.701,-3.83l-67.969 0c-7.259,0 -14.202,5.637 -16.935,11.658l-18.683 38.973c-2.848,5.783 -7.507,13.215 -7.507,21.556z"/>
   <path class="fil0" d="M0.427 151.471c0,5.346 3.827,7.393 6.891,9.984 0.725,0.613 0.962,0.98 1.687,1.594 1.373,1.164 2.443,2.028 3.88,3.151 1.376,1.074 2.159,1.895 3.548,3.014 0.75,0.605 0.979,0.945 1.697,1.585l16.447 14.022c11.724,9.47 9.983,6.696 9.906,17.281 -0.036,5.027 0.665,7.962 5.632,7.962l26.718 0c3.985,0 5.156,-3.501 5.156,-7.031l0 -23.437c0,-5.671 -5.209,-7.128 -11.059,-10.972l-37.315 -23.154c-1.602,-0.926 -2.298,-0.731 -2.876,-2.749l-4.531 -61.562c-0.169,-3.603 -0.664,-6.571 -2.463,-8.787 -4.409,-5.429 -12.073,-4.698 -15.951,-0.253 -2.3,2.636 -2.469,4.927 -2.684,9.504l-3.269 46.418c-0.026,3.205 -0.676,8.163 -0.919,11.268 -0.335,4.267 -0.495,7.717 -0.495,12.162z"/>
   <path class="fil0" d="M210.427 143.502c-1.543,0.412 -42.847,26.531 -46.672,28.796 -2.707,1.603 -4.422,2.213 -4.422,6.36l0 25.313c0,3.026 1.755,5.625 4.688,5.625l27.656 0c6.529,0 4.385,-10.074 4.652,-15.036 0.143,-2.669 3.05,-4.618 6.128,-6.996l10.9 -9.257c5.237,-4.987 20.927,-17.192 25.052,-21.355 1.388,-1.401 1.898,-3.547 2.018,-5.985l0 -2.733c-0.103,-2.705 -0.44,-5.551 -0.456,-8.026 -0.022,-3.316 -0.789,-7.994 -0.951,-11.236 -0.396,-7.933 -1.202,-15.156 -1.393,-22.982l-1.689 -22.686c-0.679,-4.54 0.299,-7.021 -1.98,-10.208 -5.858,-8.191 -18.504,-5.386 -18.844,7.124 -0.082,3.024 -0.454,7.799 -0.808,10.442 -0.479,3.573 -0.28,6.977 -0.668,10.583 -0.701,6.517 -1.034,14.247 -1.735,20.764l-1.476 21.493z"/>
  </g>
 </g>
</svg>
