<?xml version="1.0" encoding="UTF-8"?>
<!DOCTYPE svg PUBLIC "-//W3C//DTD SVG 1.1//EN" "http://www.w3.org/Graphics/SVG/1.1/DTD/svg11.dtd">
<!-- Creator: CorelDRAW 2018 (64-Bit) -->
<svg xmlns="http://www.w3.org/2000/svg" xml:space="preserve" width="10mm" height="10mm" version="1.1" style="shape-rendering:geometricPrecision; text-rendering:geometricPrecision; image-rendering:optimizeQuality; fill-rule:evenodd; clip-rule:evenodd"
viewBox="0 0 1000 1000"
 xmlns:xlink="http://www.w3.org/1999/xlink">
 <defs>
  <style type="text/css">
   <![CDATA[
    .fil0 {fill:#2C397E}
    .fil1 {fill:white}
   ]]>
  </style>
 </defs>
 <g id="Layer_x0020_1">
  <metadata id="CorelCorpID_0Corel-Layer"/>
  <rect class="fil0" x="-0.01" y="-0.01" width="1000" height="1000"/>
  <g id="_2541191961808">
   <path class="fil1" d="M367.17 683.3l2.6 20.16c1.97,31.78 -18.94,2.21 16.09,54.31 -5.93,3.95 -20.24,18.61 -23.36,18.61 -17.92,0 -12.37,-16.41 -31.71,-16.26 -24.35,0.2 -11.51,9.13 -42.81,2.26 -68.42,-15.02 -48.35,-81.28 -46.97,-97.69l-19.56 -22.46 23.17 -25.14 21.92 17.52c0.51,0.43 1.67,1.44 2.5,2.16 27.04,-6.28 20.16,-7.25 51.4,0l171.77 -168.66c27.18,14.85 27.6,19.84 43.18,43 -21.86,14.58 -63.49,60.92 -85.28,82.61 -13.5,13.45 -82.94,76.26 -82.94,89.58zm28.04 -223.38c5.94,-22.15 139.51,-146.89 149.52,-153.57 19.55,13.03 23.94,16.81 40.89,33.73l113.31 115.19 -153.05 154.72c-18.45,-18.6 14.64,-44.17 26.89,-52.34 -8.58,-36.68 -12.17,-57.04 -33.86,-82.62 -18.84,-22.23 -55.2,-43.03 -92.3,-43.03 -11.21,0 -15.05,7.74 -22.13,15.19 -11.48,12.09 -8.04,12.26 -29.27,12.73zm185.76 -152.43l14.6 -11.12 113.85 111.22 -14.6 11.12 -113.85 -111.22zm155.34 73.32l-13.45 9.98c-18.41,-12.73 -58.37,-60.65 -83.51,-85.6 -7.81,-7.75 -30.32,-23.3 -21.01,-32.57 9.79,-9.75 43.8,31.98 60.74,48.85 18.63,18.55 43.5,38.91 57.23,59.34zm-107.47 -148.92c27.32,0.6 49.33,32.85 80.6,63.99 39.42,39.26 65.32,53.31 59.58,80.27 -20.71,-13.81 -51.44,-48.91 -71.25,-68.64l-53.79 -53.47c-0.36,-0.34 -9.17,-8.82 -9.45,-9.2 -9.33,-12.71 -2.22,-6.38 -5.69,-12.95zm-32.71 4.65c16.63,31.29 4.86,19.24 -23.36,18.62 0.72,32 11.19,13.63 -4.67,37.23 -36.72,-24.49 -22.36,-21.96 -115.66,70.96 -15.93,15.87 -28.45,28.35 -44.38,44.22 -11.63,11.59 -40.89,34.13 -40.89,52.35 0,6.68 33.59,43.73 68.92,8.15 13.86,-13.96 8.19,-12.8 33.88,-12.8l-155.32 157.12c-13.67,-5.96 -20.16,-3.55 -40.93,-3.55 -22.28,-6.74 -12.06,-41.51 -57.24,3.5 -45.19,45 -10.28,34.81 -3.51,57 0,48.23 0.24,65.03 25.88,90.57 26.79,26.67 45.16,25.78 95.61,25.78 10.25,3.1 22.25,52.48 79.44,-32.58 -22.38,-33.28 -23.37,-3.23 -23.37,-65.15 0,-14.5 145.18,-152.21 154.2,-158.23 1.05,12.57 2.19,12.66 4.68,23.27 -40.97,27.32 -42.33,52.97 -7.22,81.65 0.52,0.42 1.71,1.39 2.54,2.12l183.39 -180.35 -20.71 -23.61 11.15 -9.19c13.36,2.97 27.23,19.49 25.28,-8.34 -2.3,-32.91 0.51,-16.93 25.18,-11.2 25.3,-37.62 43.86,-33.12 -10.51,-87.26 -20.08,-20 -98.62,-108.2 -120.32,-108.2 -11.68,0 -17.11,2.42 -24.53,8.14 -3.49,2.69 -6.23,6.12 -9.13,9.52l-8.4 10.26z"/>
   <path class="fil1" d="M273.72 701.92c0,-11.79 11.38,-32.58 32.7,-32.58 11.24,0 13.74,7.54 23.37,13.96l0 27.93c-4.12,2.75 -22.19,25.46 -45.22,7.8 -3.78,-2.9 -10.85,-14.28 -10.85,-17.11zm23.36 46.54c16.04,0 26.62,-2.88 36.32,-10.36 56.64,-43.64 -14.88,-125.51 -65.77,-74.82 -38.72,38.55 3.65,85.18 29.45,85.18z"/>
   <path class="fil1" d="M563.42 408.73c48.45,0 28.01,59.41 -7.16,25.75 -0.48,-0.46 -1.42,-1.68 -2.18,-2.48 2.86,-12.24 4.25,-13.68 9.34,-23.27zm51.4 23.27c0,-84.9 -119.76,-35.57 -71.63,20.15 11.56,13.39 26.46,16.84 39.75,13.39 19.06,-4.96 31.88,-22.66 31.88,-33.54z"/>
   <path class="fil1" d="M385.86 604.19c0,17.79 -1.43,1.69 4.67,13.96 18.56,-4.93 72.5,-65.37 89.95,-82.61 17.48,-17.26 21.97,-12.85 17.53,-33.73 -21.21,1.75 -34.67,22.88 -59.59,47.69 -7.29,7.27 -52.56,49.82 -52.56,54.69z"/>
  </g>
 </g>
</svg>
