<?xml version="1.0" encoding="UTF-8"?>
<!DOCTYPE svg PUBLIC "-//W3C//DTD SVG 1.1//EN" "http://www.w3.org/Graphics/SVG/1.1/DTD/svg11.dtd">
<!-- Creator: CorelDRAW 2018 (64-Bit) -->
<svg xmlns="http://www.w3.org/2000/svg" xml:space="preserve" width="5mm" height="5mm" version="1.1" style="shape-rendering:geometricPrecision; text-rendering:geometricPrecision; image-rendering:optimizeQuality; fill-rule:evenodd; clip-rule:evenodd"
viewBox="0 0 500 500"
 xmlns:xlink="http://www.w3.org/1999/xlink">
 <defs>
  <style type="text/css">
   <![CDATA[
    .fil0 {fill:white}
   ]]>
  </style>
 </defs>
 <g id="Layer_x0020_1">
  <metadata id="CorelCorpID_0Corel-Layer"/>
  <path class="fil0" d="M289.47 38c89.65,19.98 157.11,106.71 157.11,210.68l-393.16 0c0,-103.97 67.46,-190.7 157.12,-210.68l0 -22.51c0,-9.99 6.29,-18.17 13.98,-18.17l50.97 0c7.69,0 13.98,8.18 13.98,18.17l0 22.51z"/>
  <path class="fil0" d="M44.52 260.91l410.96 0c3.58,0 6.5,3.29 6.5,7.34l0 8.56c0,4.04 -2.92,7.34 -6.5,7.34l-410.96 0c-3.58,0 -6.5,-3.3 -6.5,-7.34l0 -8.56c0,-4.05 2.92,-7.34 6.5,-7.34z"/>
  <rect class="fil0" x="57.66" y="304.15" width="20.18" height="91.09"/>
  <rect class="fil0" x="180.89" y="304.15" width="20.18" height="91.09"/>
  <rect class="fil0" x="301.93" y="304.15" width="20.18" height="91.09"/>
  <rect class="fil0" x="425.16" y="304.15" width="20.18" height="91.09"/>
  <rect class="fil0" x="57.66" y="304.15" width="20.18" height="91.09"/>
  <rect class="fil0" x="180.89" y="304.15" width="20.18" height="91.09"/>
  <rect class="fil0" x="301.93" y="304.15" width="20.18" height="91.09"/>
  <rect class="fil0" x="425.16" y="304.15" width="20.18" height="91.09"/>
  <rect class="fil0" x="474.9" y="382.97" width="20.05" height="91.09"/>
  <rect class="fil0" x="239.97" y="382.97" width="20.05" height="91.09"/>
  <rect class="fil0" x="119.69" y="382.97" width="20.05" height="91.09"/>
  <rect class="fil0" x="7.22" y="382.97" width="20.05" height="91.09"/>
  <rect class="fil0" x="362.44" y="382.97" width="20.05" height="91.09"/>
 </g>
</svg>
