<?xml version="1.0" encoding="UTF-8"?>
<!DOCTYPE svg PUBLIC "-//W3C//DTD SVG 1.1//EN" "http://www.w3.org/Graphics/SVG/1.1/DTD/svg11.dtd">
<!-- Creator: CorelDRAW 2018 (64-Bit) -->
<svg xmlns="http://www.w3.org/2000/svg" xml:space="preserve" width="10mm" height="10mm" version="1.1" style="shape-rendering:geometricPrecision; text-rendering:geometricPrecision; image-rendering:optimizeQuality; fill-rule:evenodd; clip-rule:evenodd"
viewBox="0 0 1000 1000"
 xmlns:xlink="http://www.w3.org/1999/xlink">
 <defs>
  <style type="text/css">
   <![CDATA[
    .str0 {stroke:white;stroke-width:26.46;stroke-miterlimit:2.61313}
    .fil1 {fill:none}
    .fil0 {fill:#6699FF}
   ]]>
  </style>
 </defs>
 <g id="Layer_x0020_1">
  <metadata id="CorelCorpID_0Corel-Layer"/>
  <rect class="fil0" x="-0.01" y="-0.01" width="1000" height="1000"/>
  <g id="_2541197842112">
   <path class="fil1 str0" d="M349.6 754.69c-1.09,23.43 -10.57,46.55 -28.46,64.44 -38.09,38.09 -99.85,38.09 -137.94,0 -38.09,-38.09 -38.09,-99.85 0,-137.94 17.89,-17.89 41.01,-27.37 64.44,-28.46l-26.66 -26.66c-7.28,-7.27 -7.28,-19.18 0,-26.45l91.69 -91.7c7.28,-7.27 19.18,-7.27 26.46,0l155.28 155.28c7.27,7.28 7.27,19.18 0,26.46l-91.7 91.69c-7.27,7.28 -19.18,7.28 -26.45,0l-26.66 -26.66z"/>
   <path class="fil1 str0" d="M289.32 713.01c20.52,20.52 20.52,53.78 0,74.3 -20.52,20.52 -53.78,20.52 -74.3,0 -20.52,-20.52 -20.52,-53.78 0,-74.3 20.52,-20.52 53.78,-20.52 74.3,0z"/>
   <path class="fil1 str0" d="M637.51 417.44l25.26 -25.25 -62.52 -42.73 -25.26 25.25 62.52 42.73zm-117.81 -27.39l-25.25 25.25 109.99 75.17 25.24 -25.25 -109.98 -75.17zm-56.8 56.81l-25.25 25.25 109.97 75.17 25.26 -25.25 -109.98 -75.17zm-56.81 56.81l-35.61 35.61 92.57 92.57 53.02 -53.02 -109.98 -75.16zm288.23 -143.03l51.78 -51.78c24.59,6.46 51.86,0.06 71.13,-19.22 28.87,-28.86 28.87,-75.67 0,-104.54 -28.87,-28.87 -75.68,-28.87 -104.54,0 -19.28,19.27 -25.68,46.54 -19.22,71.13l-61.67 61.67 62.52 42.74zm93.06 -145.69c12.38,12.38 12.38,32.46 0,44.83 -12.39,12.39 -32.46,12.39 -44.83,0 -12.39,-12.37 -12.39,-32.45 0,-44.83 12.37,-12.38 32.44,-12.38 44.83,0z"/>
   <path class="fil1 str0" d="M787.38 214.95c12.38,12.38 12.38,32.46 0,44.83 -12.39,12.39 -32.46,12.39 -44.83,0 -12.39,-12.37 -12.39,-32.45 0,-44.83 12.37,-12.38 32.44,-12.38 44.83,0z"/>
   <path class="fil1 str0" d="M568.01 274.3l187.59 128.21c9.95,6.81 12.35,20.4 5.33,30.21l0 0c-7.03,9.81 -20.92,12.27 -30.88,5.46l-187.59 -128.22c-9.95,-6.8 -12.36,-20.4 -5.34,-30.21l0.01 0c7.02,-9.8 20.92,-12.26 30.88,-5.45z"/>
   <path class="fil1 str0" d="M511.2 331.1l187.59 128.22c9.95,6.81 12.36,20.4 5.33,30.21l0 0c-7.03,9.81 -20.92,12.26 -30.88,5.46l-187.59 -128.22c-9.96,-6.8 -12.35,-20.4 -5.33,-30.21l0 0c7.02,-9.81 20.92,-12.26 30.88,-5.46z"/>
   <path class="fil1 str0" d="M454.38 387.91l187.59 128.22c9.97,6.81 12.36,20.4 5.34,30.21l0 0c-7.03,9.81 -20.92,12.27 -30.88,5.46l-187.59 -128.22c-9.96,-6.81 -12.36,-20.4 -5.33,-30.21l0 0c7.03,-9.8 20.92,-12.26 30.87,-5.46z"/>
   <path class="fil1 str0" d="M397.58 444.72l187.59 128.22c9.95,6.81 12.35,20.4 5.33,30.21l0 0c-7.03,9.81 -20.92,12.26 -30.88,5.46l-187.59 -128.22c-9.96,-6.81 -12.36,-20.4 -5.33,-30.21l0 0c7.02,-9.81 20.92,-12.26 30.88,-5.46z"/>
  </g>
 </g>
</svg>
